<svg xmlns="http://www.w3.org/2000/svg" width="1200" height="900" viewBox="0 0 1200 900">
  <defs>
    <linearGradient id="bg" x1="0" y1="0" x2="1" y2="1">
      <stop offset="0" stop-color="#0a0a0c"/>
      <stop offset="1" stop-color="#16161d"/>
    </linearGradient>
    <filter id="noise" x="-20%" y="-20%" width="140%" height="140%">
      <feTurbulence type="fractalNoise" baseFrequency="0.9" numOctaves="2" stitchTiles="stitch"/>
      <feColorMatrix type="matrix" values="1 0 0 0 0  0 1 0 0 0  0 0 1 0 0  0 0 0 .08 0"/>
    </filter>
  </defs>
  <rect width="1200" height="900" fill="url(#bg)"/>
  <rect width="1200" height="900" filter="url(#noise)" opacity="0.35"/>
  <g opacity="0.18" stroke="#ffffff">
    <path d="M0 640H1200"/>
    <path d="M0 560H1200"/>
    <path d="M200 0V900" opacity="0.6"/>
    <path d="M420 0V900" opacity="0.4"/>
    <path d="M640 0V900" opacity="0.25"/>
  </g>
  <g transform="translate(120,160)">
    <path d="M210 560c-15-150 20-290 130-350 110-60 250-40 320 55 58 78 62 205 36 315-24 98-88 158-180 176-124 25-280-22-306-196z" fill="#0d0d12" stroke="#ffffff" stroke-opacity="0.10"/>
    <path d="M200 330c120-70 260-45 340 30" fill="none" stroke="#a1a1aa" stroke-width="7" stroke-linecap="round" opacity="0.35"/>
    <path d="M320 520c40 22 120 45 200 40" fill="none" stroke="#a1a1aa" stroke-width="7" stroke-linecap="round" opacity="0.35"/>
  </g>
  <text x="60" y="850" fill="#f3f4f6" font-family="ui-sans-serif, system-ui" font-size="44" letter-spacing="2">VORHER</text>
  <text x="60" y="885" fill="#a1a1aa" font-family="ui-sans-serif, system-ui" font-size="22">Platzhalter " austauschbar</text>
</svg>

